<svg xmlns="http://www.w3.org/2000/svg" version="1.1" xmlns:xlink="http://www.w3.org/1999/xlink" xmlns:svgjs="http://svgjs.dev/svgjs" width="2000" height="277" viewBox="0 0 2000 277"><g transform="matrix(1,0,0,1,-1.2121212121212466,1.1890186323744274)"><svg viewBox="0 0 396 55" data-background-color="#ffffff" preserveAspectRatio="xMidYMid meet" height="277" width="2000" xmlns="http://www.w3.org/2000/svg" xmlns:xlink="http://www.w3.org/1999/xlink"><g id="tight-bounds" transform="matrix(1,0,0,1,0.2400000000000091,-0.23608673205990272)"><svg viewBox="0 0 395.52 55.47217346411978" height="55.47217346411978" width="395.52"><g><svg viewBox="0 0 395.52 55.47217346411978" height="55.47217346411978" width="395.52"><g><svg viewBox="0 0 395.52 55.47217346411978" height="55.47217346411978" width="395.52"><g id="textblocktransform"><svg viewBox="0 0 395.52 55.47217346411978" height="55.47217346411978" width="395.52" id="textblock"><g><svg viewBox="0 0 395.52 55.47217346411978" height="55.47217346411978" width="395.52"><g transform="matrix(1,0,0,1,0,0)"><svg width="395.52" viewBox="1.1 -39.04 283.71 39.8" height="55.47217346411978" data-palette-color="#000000"><path d="M11.01-19.51L11.01 0 4.35 0 4.35-19.51 1.1-19.51 1.1-26.15 4.35-26.15 4.35-27.39Q4.35-29.81 5.26-31.93 6.18-34.06 7.78-35.63 9.38-37.21 11.5-38.12 13.62-39.04 16.04-39.04L16.04-39.04 21.04-39.04 21.04-32.4 16.04-32.4Q14.97-32.4 14.05-32.02 13.13-31.64 12.46-30.97 11.79-30.3 11.4-29.38 11.01-28.47 11.01-27.39L11.01-27.39 11.01-26.15 19.19-26.15 19.19-19.51 11.01-19.51ZM47.12-13.31L47.12-13.31Q47.12-10.38 46.07-7.85 45.02-5.32 43.21-3.48 41.4-1.64 38.97-0.57 36.55 0.49 33.76 0.49L33.76 0.49Q31 0.49 28.57-0.57 26.14-1.64 24.33-3.48 22.51-5.32 21.46-7.85 20.41-10.38 20.41-13.31L20.41-13.31Q20.41-16.28 21.46-18.82 22.51-21.36 24.33-23.21 26.14-25.05 28.57-26.1 31-27.15 33.76-27.15L33.76-27.15Q36.55-27.15 38.97-26.16 41.4-25.17 43.21-23.35 45.02-21.53 46.07-18.98 47.12-16.43 47.12-13.31ZM40.4-13.31L40.4-13.31Q40.4-14.92 39.88-16.22 39.35-17.53 38.45-18.47 37.55-19.41 36.34-19.91 35.13-20.41 33.76-20.41L33.76-20.41Q32.39-20.41 31.19-19.91 29.98-19.41 29.09-18.47 28.2-17.53 27.68-16.22 27.17-14.92 27.17-13.31L27.17-13.31Q27.17-11.79 27.68-10.5 28.2-9.2 29.09-8.25 29.98-7.3 31.19-6.75 32.39-6.2 33.76-6.2L33.76-6.2Q35.13-6.2 36.34-6.71 37.55-7.23 38.45-8.15 39.35-9.08 39.88-10.4 40.4-11.72 40.4-13.31ZM76.07-13.31L76.07-13.31Q76.07-10.38 75.02-7.85 73.97-5.32 72.16-3.48 70.36-1.64 67.93-0.57 65.5 0.49 62.71 0.49L62.71 0.49Q59.96 0.49 57.53-0.57 55.1-1.64 53.28-3.48 51.46-5.32 50.41-7.85 49.36-10.38 49.36-13.31L49.36-13.31Q49.36-16.28 50.41-18.82 51.46-21.36 53.28-23.21 55.1-25.05 57.53-26.1 59.96-27.15 62.71-27.15L62.71-27.15Q65.5-27.15 67.93-26.16 70.36-25.17 72.16-23.35 73.97-21.53 75.02-18.98 76.07-16.43 76.07-13.31ZM69.36-13.31L69.36-13.31Q69.36-14.92 68.83-16.22 68.31-17.53 67.4-18.47 66.5-19.41 65.29-19.91 64.08-20.41 62.71-20.41L62.71-20.41Q61.35-20.41 60.14-19.91 58.93-19.41 58.04-18.47 57.15-17.53 56.64-16.22 56.12-14.92 56.12-13.31L56.12-13.31Q56.12-11.79 56.64-10.5 57.15-9.2 58.04-8.25 58.93-7.3 60.14-6.75 61.35-6.2 62.71-6.2L62.71-6.2Q64.08-6.2 65.29-6.71 66.5-7.23 67.4-8.15 68.31-9.08 68.83-10.4 69.36-11.72 69.36-13.31ZM86.47-36.55L86.47 0 79.75 0 79.75-36.55 86.47-36.55ZM99.4-33.25L99.4-33.25Q99.4-32.32 99.05-31.52 98.7-30.71 98.09-30.11 97.48-29.52 96.66-29.16 95.84-28.81 94.91-28.81L94.91-28.81Q93.98-28.81 93.17-29.16 92.35-29.52 91.75-30.11 91.15-30.71 90.8-31.52 90.44-32.32 90.44-33.25L90.44-33.25Q90.44-34.16 90.8-34.97 91.15-35.79 91.75-36.39 92.35-36.99 93.17-37.34 93.98-37.7 94.91-37.7L94.91-37.7Q95.84-37.7 96.66-37.34 97.48-36.99 98.09-36.39 98.7-35.79 99.05-34.97 99.4-34.16 99.4-33.25ZM98.26-26.15L98.26 0 91.54 0 91.54-26.15 98.26-26.15ZM117.69 0L117.69 0 102.45 0 102.45-6.64 117.69-6.64Q118.37-6.64 118.86-7.13 119.35-7.62 119.35-8.3L119.35-8.3Q119.35-9.01 118.86-9.23 118.37-9.45 117.69-9.45L117.69-9.45 110.75-9.45Q109.02-9.45 107.51-10.11 105.99-10.77 104.87-11.9 103.75-13.04 103.1-14.55 102.45-16.06 102.45-17.8L102.45-17.8Q102.45-19.53 103.1-21.04 103.75-22.56 104.87-23.68 105.99-24.8 107.51-25.45 109.02-26.1 110.75-26.1L110.75-26.1 124.26-26.1 124.26-19.46 110.75-19.46Q110.07-19.46 109.58-18.97 109.09-18.48 109.09-17.8L109.09-17.8Q109.09-17.09 109.58-16.59 110.07-16.09 110.75-16.09L110.75-16.09 117.69-16.09Q119.4-16.09 120.91-15.52 122.42-14.94 123.55-13.92 124.67-12.89 125.33-11.45 125.99-10.01 125.99-8.3L125.99-8.3Q125.99-6.57 125.33-5.07 124.67-3.56 123.55-2.43 122.42-1.29 120.91-0.65 119.4 0 117.69 0ZM136.19-14.94L136.19 0 129.53 0 129.53-36.55 136.19-36.55 136.19-25Q137.39-25.9 138.66-26.28 139.93-26.66 141.24-26.66L141.24-26.66Q143.66-26.66 145.79-25.74 147.91-24.83 149.48-23.23 151.06-21.63 151.97-19.49 152.89-17.36 152.89-14.94L152.89-14.94 152.89 0 146.18 0 146.18-14.94 146.23-14.94Q146.23-15.97 145.83-16.88 145.44-17.8 144.76-18.48 144.08-19.17 143.17-19.56 142.27-19.95 141.24-19.95L141.24-19.95Q140.19-19.95 139.27-19.56 138.34-19.17 137.66-18.48 136.97-17.8 136.58-16.88 136.19-15.97 136.19-14.94L136.19-14.94ZM182.58-9.69L186.29-3.59Q183.84-1.49 180.82-0.37 177.79 0.76 174.54 0.76L174.54 0.76Q172.05 0.76 169.75 0.11 167.44-0.54 165.42-1.72 163.41-2.91 161.75-4.57 160.09-6.23 158.91-8.24 157.72-10.25 157.07-12.56 156.43-14.87 156.43-17.36L156.43-17.36Q156.43-19.85 157.07-22.17 157.72-24.49 158.91-26.5 160.09-28.52 161.75-30.18 163.41-31.84 165.42-33.02 167.44-34.2 169.75-34.85 172.05-35.5 174.54-35.5L174.54-35.5Q177.79-35.5 180.82-34.39 183.84-33.28 186.29-31.15L186.29-31.15 182.58-25.05Q181.04-26.71 178.94-27.6 176.84-28.49 174.54-28.49L174.54-28.49Q172.22-28.49 170.2-27.61 168.17-26.73 166.66-25.23 165.14-23.73 164.26-21.69 163.39-19.65 163.39-17.36L163.39-17.36Q163.39-15.06 164.26-13.05 165.14-11.04 166.66-9.52 168.17-8.01 170.2-7.13 172.22-6.25 174.54-6.25L174.54-6.25Q176.84-6.25 178.94-7.14 181.04-8.03 182.58-9.69L182.58-9.69ZM223.64-17.36L223.64-17.36Q223.64-14.87 222.99-12.56 222.34-10.25 221.17-8.24 220-6.23 218.34-4.57 216.68-2.91 214.68-1.72 212.68-0.54 210.36 0.11 208.04 0.76 205.55 0.76L205.55 0.76Q203.06 0.76 200.75 0.11 198.44-0.54 196.43-1.72 194.41-2.91 192.75-4.57 191.09-6.23 189.91-8.24 188.73-10.25 188.08-12.56 187.43-14.87 187.43-17.36L187.43-17.36Q187.43-19.85 188.08-22.17 188.73-24.49 189.91-26.49 191.09-28.49 192.75-30.15 194.41-31.81 196.43-32.98 198.44-34.16 200.75-34.8 203.06-35.45 205.55-35.45L205.55-35.45Q208.04-35.45 210.36-34.8 212.68-34.16 214.68-32.98 216.68-31.81 218.34-30.15 220-28.49 221.17-26.49 222.34-24.49 222.99-22.17 223.64-19.85 223.64-17.36ZM216.68-17.36L216.68-17.36Q216.68-19.65 215.8-21.69 214.92-23.73 213.42-25.23 211.92-26.73 209.88-27.61 207.84-28.49 205.55-28.49L205.55-28.49Q203.23-28.49 201.2-27.61 199.17-26.73 197.66-25.23 196.15-23.73 195.27-21.69 194.39-19.65 194.39-17.36L194.39-17.36Q194.39-15.06 195.27-13.05 196.15-11.04 197.66-9.52 199.17-8.01 201.2-7.13 203.23-6.25 205.55-6.25L205.55-6.25Q207.84-6.25 209.88-7.13 211.92-8.01 213.42-9.52 214.92-11.04 215.8-13.05 216.68-15.06 216.68-17.36ZM242.24-28L235.23-28 235.23-13.99 242.24-13.99Q243.68-13.99 244.95-14.54 246.22-15.09 247.17-16.04 248.12-16.99 248.67-18.27 249.22-19.56 249.22-21L249.22-21Q249.22-22.44 248.67-23.72 248.12-25 247.17-25.95 246.22-26.9 244.95-27.45 243.68-28 242.24-28L242.24-28ZM235.23-7.01L235.23 0 228.22 0 228.22-35.01 242.24-35.01Q244.17-35.01 245.95-34.51 247.73-34.01 249.28-33.09 250.83-32.18 252.11-30.9 253.4-29.61 254.31-28.05 255.23-26.49 255.73-24.71 256.23-22.92 256.23-21L256.23-21Q256.23-19.19 255.78-17.48 255.32-15.77 254.48-14.23 253.64-12.7 252.42-11.4 251.2-10.11 249.68-9.16L249.68-9.16 253.57 0 246.12 0 243.07-7.06 235.23-7.01ZM284.81-7.01L284.81 0 260.81 0 260.81-35.01 284.81-35.01 284.81-28 267.82-28 267.82-21 279.32-21 279.32-13.99 267.82-13.99 267.82-7.01 284.81-7.01Z" opacity="1" transform="matrix(1,0,0,1,0,0)" fill="#000000" class="wordmark-text-0" data-fill-palette-color="primary" id="text-0"></path></svg></g></svg></g></svg></g></svg></g></svg></g><defs></defs></svg><rect width="395.52" height="55.47217346411978" fill="none" stroke="none" visibility="hidden"></rect></g></svg></g></svg>